<?xml version="1.0" encoding="UTF-8"?>
<svg id="Capa_1" data-name="Capa 1" xmlns="http://www.w3.org/2000/svg" viewBox="0 0 455.11 437.33">
  <defs>
    <style>
      .cls-1 {
        fill: #2d2e87;
      }

      .cls-2 {
        fill: #c6d76b;
      }
    </style>
  </defs>
  <g>
    <path class="cls-2" d="M68.07,77.24v-20.35h101.74v20.35H68.07Z"/>
    <path class="cls-2" d="M169.82,77.24h19.32c1.51,8.88,2.09,210.55,.68,243.85h-19.73v20.46h-20.46v20.46h-20.13v20.09c-3.56,.13-6.81,.3-10.05,.36-3.34,.06-6.69,.01-10.38,.01v-20.1h-20.46v-20.46h-20.46v-20.12h-19.3c-1.68-9.35-2.3-206.03-.8-244.56h20.02v40.34c30.39,1.26,93.25,.81,101.74-.7v-39.64Zm-61.35,203.53v-121.64h-40.12v141.47h20.35v-19.84h19.77Zm61.04,20.13V159.14h-40.1v121.86h20.37v19.9h19.73Z"/>
  </g>
  <g>
    <path class="cls-1" d="M270.74,77.24v-20.35h101.74v20.35h-101.74Z"/>
    <path class="cls-1" d="M372.48,77.24h19.32c1.51,8.88,2.09,210.55,.68,243.85h-19.73v20.46h-20.46v20.46h-20.13v20.09c-3.56,.13-6.81,.3-10.05,.36-3.34,.06-6.69,.01-10.38,.01v-20.1h-20.46v-20.46h-20.46v-20.12h-19.3c-1.68-9.35-2.3-206.03-.8-244.56h20.02v40.34c30.39,1.26,93.25,.81,101.74-.7v-39.64Zm-61.35,203.53v-121.64h-40.12v141.47h20.35v-19.84h19.77Zm61.04,20.13V159.14h-40.1v121.86h20.37v19.9h19.73Z"/>
  </g>
</svg>