<?xml version="1.0" encoding="UTF-8"?>
<svg id="Capa_1" data-name="Capa 1" xmlns="http://www.w3.org/2000/svg" viewBox="0 0 455.11 437.33">
  <defs>
    <style>
      .cls-1 {
        fill: #2d2e87;
      }
    </style>
  </defs>
  <path class="cls-1" d="M188.32,197.02v-19.67h99.54v19.67l.15-.14c-33.28,0-66.55,0-99.83,0l.15,.14Z"/>
  <path class="cls-1" d="M287.85,316.52v19.67h-99.54v-19.67l-.15,.14h99.83l-.15-.14Z"/>
  <path class="cls-1" d="M228.2,156.77v-59.1h19.5v59.1h-19.5Z"/>
  <path class="cls-1" d="M148.44,216.96v-19.94c13.45,0,26.66,0,39.88,0,0,0-.15-.14-.15-.14v19.94h-39.88l.15,.14Z"/>
  <path class="cls-1" d="M287.85,197.02h39.88v19.94l.15-.14h-39.88v-19.94l-.15,.14Z"/>
  <path class="cls-1" d="M128.49,276.63h-19.66v-39.72h19.66l-.14-.15v40.02l.14-.15Z"/>
  <path class="cls-1" d="M347.68,236.91h19.66v39.72h-19.66l.14,.15v-40.02l-.14,.15Z"/>
  <path class="cls-1" d="M188.32,316.52h-39.88v-19.94l-.15,.14h39.88v19.94l.15-.14Z"/>
  <path class="cls-1" d="M327.73,296.58v19.94h-39.88s.15,.14,.15,.14v-19.94h39.88l-.15-.14Z"/>
  <path class="cls-1" d="M128.47,157h-19.63v-19.52h19.49v19.66l.14-.14Z"/>
  <path class="cls-1" d="M347.83,157.13v-19.63h19.52v19.49h-19.66l.14,.14Z"/>
  <path class="cls-1" d="M128.33,157.14h19.67v19.55h-19.52c0-6.58,0-13.14,0-19.69,0,0-.14,.14-.14,.14Z"/>
  <path class="cls-1" d="M347.69,156.99v19.67h-19.55v-19.52c6.58,0,13.14,0,19.69,0,0,0-.14-.14-.14-.14Z"/>
  <path class="cls-1" d="M128.49,236.91v-19.95c6.81,0,13.38,0,19.95,0,0,0-.15-.14-.15-.14v19.94h-19.94l.14,.15Z"/>
  <path class="cls-1" d="M327.73,216.96h19.95v19.95s.14-.15,.14-.15h-19.94v-19.94l-.15,.14Z"/>
  <path class="cls-1" d="M148.44,296.58h-19.95c0-6.81,0-13.38,0-19.95,0,0-.14,.15-.14,.15h19.94v19.94l.15-.14Z"/>
  <path class="cls-1" d="M347.68,276.63v19.95h-19.95s.15,.14,.15,.14v-19.94h19.94l-.14-.15Z"/>
  <path class="cls-1" d="M267.64,296.43h-59.19v-79.13h59.19v79.13Z"/>
</svg>