<?xml version="1.0" encoding="UTF-8"?>
<svg id="Capa_1" data-name="Capa 1" xmlns="http://www.w3.org/2000/svg" viewBox="0 0 455.11 437.33">
  <defs>
    <style>
      .cls-1 {
        fill: #2d2e87;
      }
    </style>
  </defs>
  <path class="cls-1" d="M178.58,118.73h19.96v-39.81h79.87v39.81h20.31l-.14-.15v19.71h-40.21v-39.38h-39.8v39.4h-39.86v-19.73l-.14,.15Z"/>
  <path class="cls-1" d="M138.72,278.74v-19.96h-39.81v-79.88h39.81v-20.31l-.15,.14h19.71v40.21h-39.37v39.81h39.4v39.86h-19.73l.15,.14Z"/>
  <path class="cls-1" d="M338.58,158.59v19.96h39.81v79.88h-39.81v20.31l.15-.14h-19.71v-40.21h39.37v-39.81h-39.4v-39.86h19.73l-.15-.14Z"/>
  <path class="cls-1" d="M298.72,318.61h-19.96v39.81h-79.87v-39.81h-20.31l.14,.15v-19.71h40.21v39.38h39.8v-39.4h39.86v19.73l.14-.15Z"/>
  <path class="cls-1" d="M138.72,158.59h-19.73v-59.61h59.59c0,6.58,0,13.16,0,19.75l.14-.15h-40.14v40.15l.15-.14Z"/>
  <path class="cls-1" d="M298.72,118.73v-19.73h59.6v59.6c-6.58,0-13.16,0-19.75,0,0,0,.15,.14,.15,.14v-40.15h-40.14l.14,.15Z"/>
  <path class="cls-1" d="M178.58,318.61v19.73h-59.6v-59.6c6.58,0,13.16,0,19.75,0l-.15-.14v40.15h40.14l-.14-.15Z"/>
  <path class="cls-1" d="M338.58,278.74h19.73v59.61h-59.59c0-6.58,0-13.16,0-19.75l-.14,.15h40.14v-40.15l-.15,.14Z"/>
  <path class="cls-1" d="M278.3,238.8h-19.54v19.52h-40.06v-19.54h-19.7v-40.06h19.54v-19.7h40.06v19.54h19.7v40.24Z"/>
</svg>