<?xml version="1.0" encoding="UTF-8"?>
<svg id="Capa_1" data-name="Capa 1" xmlns="http://www.w3.org/2000/svg" viewBox="0 0 455.11 437.33">
  <defs>
    <style>
      .cls-1 {
        fill: #2d2e87;
      }
    </style>
  </defs>
  <path class="cls-1" d="M208.78,159.39V80.03h39.46v79.36h-39.46Z"/>
  <path class="cls-1" d="M88.77,239.31v-39.37h79.37v39.37H88.77Z"/>
  <path class="cls-1" d="M288.79,239.32v-39.39h79.37v39.39h-79.37Z"/>
  <path class="cls-1" d="M208.95,279.85h39.29v79.54h-39.29v-79.54Z"/>
  <path class="cls-1" d="M208.97,199.77h39.2v39.56h-39.2v-39.56Z"/>
  <path class="cls-1" d="M128.64,119.72v-19.71h59.58v19.57h-59.73l.14,.14Z"/>
  <path class="cls-1" d="M328.61,119.58h-59.67v-19.58h59.53v19.73l.14-.14Z"/>
  <path class="cls-1" d="M128.5,119.58v59.71h-19.61v-59.56c6.58,0,13.16,0,19.75,0,0,0-.14-.14-.14-.14Z"/>
  <path class="cls-1" d="M328.47,119.72h19.74v59.61h-19.6c0-19.96,0-39.86,0-59.75,0,0-.14,.14-.14,.14Z"/>
  <path class="cls-1" d="M128.61,319.58h-19.71v-59.58h19.57v59.73l.14-.14Z"/>
  <path class="cls-1" d="M328.64,319.72v-59.67h19.58v59.53h-19.73l.14,.14Z"/>
  <path class="cls-1" d="M128.47,319.72h59.71v19.61h-59.56c0-6.58,0-13.16,0-19.75,0,0-.14,.14-.14,.14Z"/>
  <path class="cls-1" d="M328.5,319.58v19.74h-59.61v-19.6c19.96,0,39.86,0,59.75,0,0,0-.14-.14-.14-.14Z"/>
</svg>