<?xml version="1.0" encoding="UTF-8"?>
<svg id="Capa_1" data-name="Capa 1" xmlns="http://www.w3.org/2000/svg" viewBox="0 0 455.11 437.33">
  <defs>
    <style>
      .cls-1 {
        fill: #2d2e87;
      }
    </style>
  </defs>
  <path class="cls-1" d="M368.83,157.16h19.68v179.09H110.1V157.16h19.61l-.14-.15v139.78h100v19.52h39.75v-19.88h99.64V157.01l-.14,.15Z"/>
  <path class="cls-1" d="M129.71,157.16v-19.68h99.54v19.67l.15-.14c-33.28,0-66.55,0-99.83,0l.14,.15Z"/>
  <path class="cls-1" d="M269.28,157.15v-19.67h99.54v19.68s.14-.15,.14-.15h-99.83l.15,.14Z"/>
  <path class="cls-1" d="M229.25,157.15c13.34,0,26.69,0,40.03,0,0,0-.15-.14-.15-.14v19.66h-39.74v-19.66l-.15,.14Z"/>
  <path class="cls-1" d="M229.09,237.17v19.35h-79.12v-19.35h79.12Z"/>
  <path class="cls-1" d="M269.4,256.4v-19.27h79.29v19.27h-79.29Z"/>
  <path class="cls-1" d="M209.18,197.32v19.3h-59.36v-19.3h59.36Z"/>
  <path class="cls-1" d="M289.25,216.61v-19.27h59.36v19.27h-59.36Z"/>
</svg>