<?xml version="1.0" encoding="UTF-8"?>
<svg id="Capa_1" data-name="Capa 1" xmlns="http://www.w3.org/2000/svg" viewBox="0 0 455.11 437.33">
  <defs>
    <style>
      .cls-1 {
        fill: #2d2e87;
      }
    </style>
  </defs>
  <path class="cls-1" d="M209.6,292.95v20.83h-41.31v20.35h-20.61V84.48h19.86v19.75h21.13v21.56l.32-.29h-20.38v167.75h41.31l-.32-.29Z"/>
  <path class="cls-1" d="M293.34,230.47h20.79v20.35h20.35v20.95h-62.09v21.48l.32-.29h-21.23l.29,.29v-42.33h41.86v-20.76l-.29,.32Z"/>
  <path class="cls-1" d="M272.39,293.24h20.37v61.92h-40.97v-20.34l-.32,.29h21.23v-42.16l-.32,.29Z"/>
  <path class="cls-1" d="M251.8,334.82h-20.93v-41.86l-.32,.29c7.08,0,14.15,0,21.23,0l-.29-.29c0,14.05,0,28.1,0,42.16l.32-.29Z"/>
  <path class="cls-1" d="M188.66,125.79h20.93v20.93l.32-.29c-6.83,0-13.66,0-20.93,0v-20.93l-.32,.29Z"/>
  <path class="cls-1" d="M209.6,146.72h20.93v20.93l.32-.29c-6.83,0-13.66,0-20.93,0v-20.93l-.32,.29Z"/>
  <path class="cls-1" d="M230.53,167.66h20.93v20.93l.32-.29c-6.83,0-13.66,0-20.93,0v-20.93l-.32,.29Z"/>
  <path class="cls-1" d="M251.46,188.59h20.93v20.93l.32-.29h-20.93v-20.93l-.32,.29Z"/>
  <path class="cls-1" d="M272.39,209.52h20.95c0,7.28,0,14.12,0,20.95,0,0,.29-.32,.29-.32h-20.93v-20.93l-.32,.29Z"/>
  <path class="cls-1" d="M230.86,292.95c-7.09,0-14.18,0-21.27,0,0,0,.32,.29,.32,.29,0-6.8,0-13.6,0-20.34h20.64v20.35l.32-.29Z"/>
</svg>