<?xml version="1.0" encoding="UTF-8"?>
<svg id="Capa_1" data-name="Capa 1" xmlns="http://www.w3.org/2000/svg" viewBox="0 0 455.11 437.33">
  <defs>
    <style>
      .cls-1 {
        fill: #2d2e87;
      }
    </style>
  </defs>
  <path class="cls-1" d="M139.99,234.2h-19.9v-19.7h-19.66V114.98h99.11v19.36h20.06v20.25l.15-.14h-20.15v20.21h-19.72c0,6.94,0,13.37,0,19.8-6.55,0-13.1,0-20.16,0v20.07h-19.86v19.8l.14-.15Z"/>
  <path class="cls-1" d="M339.23,274.23h19.66v59.66h-19.66l.14,.15v-59.95l-.14,.15Z"/>
  <path class="cls-1" d="M319.28,353.84v19.66h-59.66v-19.66l-.15,.14h59.95l-.15-.14Z"/>
  <path class="cls-1" d="M219.59,154.59h19.94v19.94l.15-.14h-19.94v-19.94l-.15,.14Z"/>
  <path class="cls-1" d="M239.53,174.53h19.94v19.94l.15-.14h-19.94v-19.94l-.15,.14Z"/>
  <path class="cls-1" d="M259.47,194.47h19.94v19.94l.15-.14h-19.94v-19.94l-.15,.14Z"/>
  <path class="cls-1" d="M279.41,214.41h19.94v19.94l.15-.14h-19.94v-19.94l-.15,.14Z"/>
  <path class="cls-1" d="M159.93,254.14h-19.94c0-6.8,0-13.37,0-19.94,0,0-.14,.15-.14,.15h19.94v19.94l.14-.15Z"/>
  <path class="cls-1" d="M299.35,234.34h19.94v19.94s.15-.14,.15-.14c-6.69,.05-13.39,.09-20.08,.14,.05-6.69,.1-13.38,.15-20.07l-.15,.14Z"/>
  <path class="cls-1" d="M179.86,274.07h-19.94c0-6.8,0-13.37,0-19.94,0,0-.14,.15-.14,.15h19.94v19.94l.14-.15Z"/>
  <path class="cls-1" d="M319.28,254.28h19.95v19.95s.14-.15,.14-.15h-19.94v-19.94l-.15,.14Z"/>
  <path class="cls-1" d="M199.8,294.01h-19.94c0-6.8,0-13.37,0-19.94,0,0-.14,.15-.14,.15h19.94v19.94l.14-.15Z"/>
  <path class="cls-1" d="M219.74,313.95h-19.94c0-6.8,0-13.37,0-19.94,0,0-.14,.15-.14,.15h19.94v19.94l.14-.15Z"/>
  <path class="cls-1" d="M239.68,333.89h-19.94c0-6.8,0-13.37,0-19.94,0,0-.14,.15-.14,.15,6.69-.05,13.38-.1,20.07-.15-.05,6.69-.09,13.39-.14,20.08l.14-.15Z"/>
  <path class="cls-1" d="M259.62,353.84h-19.95c0-6.81,0-13.38,0-19.95l-.14,.15h19.94v19.94l.15-.14Z"/>
  <path class="cls-1" d="M339.23,333.89v19.95c-6.81,0-13.38,0-19.95,0l.15,.14v-19.94h19.94l-.14-.15Z"/>
  <path class="cls-1" d="M199.8,214.41h-20.08v-20.08h20.08v20.08Z"/>
  <path class="cls-1" d="M219.74,234.35h-20.08v-20.08h20.08v20.08Z"/>
  <path class="cls-1" d="M239.68,254.28h-20.08v-20.08h20.08v20.08Z"/>
  <path class="cls-1" d="M259.62,274.22h-20.08v-20.08h20.08v20.08Z"/>
  <path class="cls-1" d="M299.49,254.14v20.08h-20.08v-20.08h20.08Z"/>
  <path class="cls-1" d="M279.55,274.08v20.08h-20.08c0-6.69,0-13.38,0-20.08,6.69,0,13.38,0,20.08,0Z"/>
  <path class="cls-1" d="M259.62,294.02v20.08h-20.08v-20.08h20.08Z"/>
</svg>