<?xml version="1.0" encoding="UTF-8"?>
<svg id="Capa_1" data-name="Capa 1" xmlns="http://www.w3.org/2000/svg" viewBox="0 0 455.11 437.33">
  <defs>
    <style>
      .cls-1 {
        fill: #2d2e87;
      }
    </style>
  </defs>
  <path class="cls-1" d="M108.56,217v-19.85h99.54v-39.88h19.81v-20.02h20.24l-.14-.14v59.7h99.72v20.2l.15-.14c-79.82,0-159.64,0-239.46,0l.15,.14Z"/>
  <path class="cls-1" d="M347.73,316.59v19.68H108.56v-19.68l-.15,.14c79.82,0,159.64,0,239.46,0l-.15-.14Z"/>
  <path class="cls-1" d="M108.56,316.59h-19.68v-99.6c6.54,0,13.11,0,19.68,0l-.15-.14c0,33.29,0,66.58,0,99.87l.15-.14Z"/>
  <path class="cls-1" d="M347.73,217h19.68v99.6c-6.54,0-13.11,0-19.68,0l.15,.14v-99.87l-.15,.14Z"/>
  <path class="cls-1" d="M248.15,137.24v-19.69h59.44v19.55c-19.91,0-39.74,0-59.58,0,0,0,.14,.14,.14,.14Z"/>
  <path class="cls-1" d="M367.52,117.46v19.33h-39.34v-19.33h39.34Z"/>
  <path class="cls-1" d="M288.09,237h19.65v19.76h19.88v19.83h-19.63v19.88h-19.83v-19.63h-19.88v-19.83h19.81v-20.01Z"/>
  <path class="cls-1" d="M208.31,256.5v-19.22h39.41v19.22h-39.41Z"/>
  <path class="cls-1" d="M148.45,256.89v-19.66h19.79v19.66l.15-.14h-20.08l.15,.14Z"/>
  <path class="cls-1" d="M148.44,276.69h-19.66v-19.8h19.67s-.15-.14-.15-.14v20.09l.14-.15Z"/>
  <path class="cls-1" d="M168.24,256.89h19.67v19.8h-19.66l.14,.15v-20.09l-.15,.14Z"/>
  <path class="cls-1" d="M168.25,276.69v19.67h-19.81c0-6.55,0-13.11,0-19.67,0,0-.14,.15-.14,.15h20.08l-.14-.15Z"/>
</svg>