<?xml version="1.0" encoding="UTF-8"?>
<svg id="Capa_1" data-name="Capa 1" xmlns="http://www.w3.org/2000/svg" viewBox="0 0 455.11 437.33">
  <defs>
    <style>
      .cls-1 {
        fill: #2d2e87;
      }
    </style>
  </defs>
  <path class="cls-1" d="M268.85,279.6v59.87h-19.77v19.93h-39.7v-19.58h-20.12v-60.23l-.15,.14h19.7v-60.24h-19.71c0-6.99,0-13.44,0-19.9h19.95v-20.01c13.34,0,26.67,0,40.01,0v20.01h19.95v20.25h-19.67v59.88h19.66l-.15-.14Z"/>
  <path class="cls-1" d="M169.31,99.73v-19.73h119.47v19.73l.15-.14c-39.92,0-79.84,0-119.77,0l.15,.14Z"/>
  <path class="cls-1" d="M149.37,239.59h-19.67V119.74h19.67l-.14-.15c0,40.05,0,80.09,0,120.14l.14-.15Z"/>
  <path class="cls-1" d="M308.73,119.74h19.67v119.85h-19.67l.14,.15V119.6l-.14,.15Z"/>
  <path class="cls-1" d="M149.37,119.74v-20.01c6.81,0,13.38,0,19.95,0,0,0-.15-.14-.15-.14v20h-19.94l.14,.15Z"/>
  <path class="cls-1" d="M288.79,99.73h19.95c0,6.83,0,13.42,0,20.01,0,0,.14-.15,.14-.15h-19.94v-20l-.15,.14Z"/>
  <path class="cls-1" d="M169.3,259.59h-19.94c0-6.82,0-13.41,0-20,0,0-.14,.15-.14,.15h19.94v20l.14-.15Z"/>
  <path class="cls-1" d="M308.73,239.59v20h-19.94l.14,.15v-20h19.94l-.14-.15Z"/>
  <path class="cls-1" d="M189.25,279.6h-19.95c0-6.83,0-13.42,0-20.01,0,0-.14,.15-.14,.15h19.94v20l.15-.14Z"/>
  <path class="cls-1" d="M288.8,259.59v20.01c-6.81,0-13.38,0-19.95,0,0,0,.15,.14,.15,.14v-20h19.94l-.14-.15Z"/>
  <path class="cls-1" d="M209.18,179.74h-19.94v20h-19.66v-39.74h39.6v19.74Z"/>
  <path class="cls-1" d="M268.86,199.74v-20h-19.94v-19.72h39.61v39.72h-19.67Z"/>
</svg>