<?xml version="1.0" encoding="UTF-8"?>
<svg id="Capa_1" data-name="Capa 1" xmlns="http://www.w3.org/2000/svg" viewBox="0 0 455.11 437.33">
  <defs>
    <style>
      .cls-1 {
        fill: #2d2e87;
      }
    </style>
  </defs>
  <path class="cls-1" d="M287.84,98.78h19.91v159.78h19.84v20.09h20.02v19.91h19.76v59.75h-39.48v-19.44h-19.85v-20.09h-20.02v-19.91h-19.85v-19.91H128.48v-20.32l-.15,.14h159.64V98.63l-.14,.15Z"/>
  <path class="cls-1" d="M128.48,98.77v-19.73h159.36c0,6.57,0,13.16,0,19.74,0,0,.14-.15,.14-.15-53.21,0-106.43,0-159.64,0l.15,.14Z"/>
  <path class="cls-1" d="M128.48,258.63h-19.68V98.77c6.54,0,13.11,0,19.68,0,0,0-.15-.14-.15-.14,0,53.38,0,106.76,0,160.14l.15-.14Z"/>
  <path class="cls-1" d="M267.85,179.12v59.21h-119.17v-59.21h119.17Z"/>
  <path class="cls-1" d="M148.73,118.89h19.25v19.55h-19.25v-19.55Z"/>
</svg>