<?xml version="1.0" encoding="UTF-8" standalone="no"?>
<!DOCTYPE svg PUBLIC "-//W3C//DTD SVG 1.1//EN" "http://www.w3.org/Graphics/SVG/1.1/DTD/svg11.dtd">
<svg xmlns="http://www.w3.org/2000/svg" version="1.1" viewBox="0.00 0.00 345.00 344.00">
<path fill="#e91f2f" d="
  M 110.38 0.00
  L 117.25 0.00
  Q 125.34 3.21 125.36 12.75
  Q 125.43 59.66 125.36 75.24
  C 125.32 84.36 136.48 83.74 136.51 75.50
  Q 136.61 48.13 136.80 20.75
  C 136.89 7.12 155.34 4.77 159.34 16.66
  Q 160.01 18.65 159.96 23.43
  Q 159.51 65.90 159.11 108.38
  C 159.07 112.77 158.47 118.17 152.91 119.14
  Q 152.42 119.23 151.97 118.99
  C 144.56 114.97 138.09 110.85 129.75 108.79
  C 123.13 107.16 111.56 107.21 104.51 108.88
  C 85.57 113.38 69.33 128.80 66.82 148.76
  Q 65.65 158.05 69.61 166.83
  C 78.67 186.94 99.93 193.24 119.75 185.47
  C 127.24 182.53 135.48 176.50 132.42 167.32
  C 129.44 158.41 120.11 158.47 112.71 160.60
  Q 106.16 162.48 100.15 160.69
  C 91.88 158.24 86.97 150.59 91.28 142.29
  C 96.62 132.00 112.68 128.02 123.00 128.96
  Q 131.20 129.71 138.04 132.30
  C 162.36 141.53 171.87 169.59 159.66 192.17
  C 151.80 206.72 134.66 216.25 118.80 220.27
  C 92.39 226.96 63.02 219.06 46.11 196.89
  C 40.14 189.05 37.38 181.20 35.87 170.78
  Q 33.06 151.36 32.64 133.50
  Q 31.67 92.51 32.27 51.50
  Q 32.38 44.44 38.51 41.55
  C 44.34 38.81 52.78 41.06 55.03 47.61
  Q 55.74 49.70 55.74 55.47
  Q 55.73 68.70 55.95 81.94
  Q 56.00 85.08 56.61 86.45
  C 59.07 91.96 66.98 90.36 66.99 84.00
  Q 67.03 55.87 66.80 27.75
  C 66.71 15.52 83.50 11.66 88.96 22.24
  Q 90.32 24.88 90.36 29.98
  Q 90.52 52.44 90.52 74.89
  C 90.53 84.84 102.01 84.69 102.01 76.75
  Q 102.00 44.37 102.04 12.00
  Q 102.05 2.95 110.38 0.00
  Z"
/>
<path fill="#e91f2f" d="
  M 225.38 0.00
  L 232.01 0.00
  C 239.32 2.47 240.58 7.95 240.54 15.00
  Q 240.38 44.95 240.38 74.91
  Q 240.38 78.02 241.07 79.47
  C 243.67 84.86 251.76 82.48 251.81 77.00
  Q 252.03 53.74 252.02 30.48
  C 252.02 25.37 252.59 21.60 256.44 18.61
  C 262.38 14.01 272.46 15.94 274.89 23.53
  Q 275.49 25.42 275.50 30.54
  Q 275.55 56.20 275.35 81.86
  Q 275.33 85.02 275.80 86.32
  C 277.95 92.22 286.42 89.82 286.46 84.25
  Q 286.57 68.00 286.64 51.75
  C 286.70 39.42 304.04 36.06 309.19 46.86
  Q 310.50 49.61 310.47 54.82
  C 310.21 94.29 311.85 135.09 306.23 173.52
  C 302.51 198.99 279.42 217.13 255.04 221.52
  C 230.24 225.98 196.40 215.78 183.10 192.75
  C 171.85 173.26 177.68 148.23 196.78 136.10
  C 211.24 126.91 231.86 125.82 245.87 136.13
  C 252.44 140.96 255.61 150.80 248.88 157.15
  C 244.15 161.62 235.77 162.58 229.48 160.76
  C 222.93 158.86 216.13 158.21 211.76 163.98
  C 205.22 172.62 212.49 180.77 220.15 184.37
  C 241.68 194.49 266.93 186.60 274.31 162.72
  C 282.07 137.58 260.17 113.78 237.19 108.71
  C 230.15 107.16 221.38 107.48 214.25 108.54
  C 206.04 109.77 198.06 114.60 190.75 118.85
  Q 190.35 119.09 189.88 119.06
  C 185.10 118.80 183.75 115.06 183.66 110.75
  Q 182.85 67.63 182.45 24.50
  Q 182.40 18.42 183.25 16.08
  C 186.61 6.85 201.64 6.55 204.90 16.20
  Q 205.52 18.03 205.58 22.87
  Q 205.86 45.19 205.97 67.50
  C 205.99 70.89 205.27 76.63 207.01 79.42
  C 208.95 82.52 214.29 82.75 216.13 79.49
  Q 216.96 78.04 216.97 74.84
  Q 217.06 44.41 217.24 13.97
  C 217.29 6.86 218.52 2.30 225.38 0.00
  Z"
/>
<path fill="#0a0a0a" d="
  M 168.56 269.90
  C 172.31 259.55 148.93 265.38 151.97 249.81
  C 154.05 239.15 167.30 238.66 174.26 243.95
  Q 175.19 244.66 174.59 245.67
  L 172.92 248.50
  A 1.30 1.30 0.0 0 1 171.15 248.97
  Q 167.85 247.07 165.76 246.56
  C 163.17 245.93 158.63 247.20 158.37 250.51
  C 157.74 258.60 177.11 253.86 175.57 268.39
  C 174.25 280.82 158.86 281.43 151.00 274.87
  Q 150.09 274.11 150.75 273.12
  L 152.63 270.29
  A 1.41 1.41 0.0 0 1 154.54 269.87
  C 158.40 272.24 161.80 274.61 166.45 272.45
  Q 167.88 271.78 168.56 269.90
  Z"
/>
<path fill="#0a0a0a" d="
  M 343.57 245.23
  L 341.63 248.54
  A 1.19 1.18 -62.2 0 1 340.11 249.02
  C 336.73 247.46 332.82 245.03 329.29 247.29
  Q 326.11 249.33 327.31 252.44
  C 328.32 255.05 333.50 256.05 335.93 256.98
  C 343.57 259.89 347.63 265.57 342.46 273.70
  C 337.61 281.31 325.77 279.92 319.75 274.90
  Q 318.71 274.03 319.51 272.93
  L 321.52 270.14
  A 1.19 1.18 -54.9 0 1 323.15 269.85
  C 327.14 272.56 333.31 275.49 336.89 270.96
  Q 338.59 268.82 337.42 266.09
  C 336.40 263.69 331.40 262.59 328.96 261.89
  Q 320.39 259.47 320.51 251.68
  C 320.68 239.29 336.09 238.28 343.41 244.33
  Q 343.87 244.71 343.57 245.23
  Z"
/>
<path fill="#0a0a0a" d="
  M 0.00 241.01
  C 5.86 241.28 15.22 240.03 21.15 242.69
  C 28.35 245.91 28.36 256.25 20.70 258.74
  Q 19.94 258.98 20.67 259.30
  C 24.50 260.97 26.93 262.21 27.48 266.67
  C 28.34 273.60 22.03 278.36 15.50 278.51
  Q 7.75 278.69 0.00 278.57
  L 0.00 241.01
  Z
  M 6.75 246.95
  L 6.73 256.87
  A 0.37 0.37 0.0 0 0 7.10 257.24
  L 13.73 257.25
  A 5.70 5.09 0.1 0 0 19.44 252.17
  L 19.44 251.69
  A 5.70 5.09 0.1 0 0 13.75 246.59
  L 7.12 246.58
  A 0.37 0.37 0.0 0 0 6.75 246.95
  Z
  M 6.71 262.59
  L 6.71 272.77
  A 0.38 0.38 0.0 0 0 7.09 273.15
  L 14.30 273.15
  A 6.21 5.15 -0.0 0 0 20.51 268.00
  L 20.51 267.36
  A 6.21 5.15 0.0 0 0 14.30 262.21
  L 7.09 262.21
  A 0.38 0.38 0.0 0 0 6.71 262.59
  Z"
/>
<path fill="#0a0a0a" d="
  M 40.50 247.15
  L 40.49 256.59
  A 0.42 0.42 0.0 0 0 40.91 257.01
  L 53.07 256.99
  A 0.42 0.42 0.0 0 1 53.49 257.40
  L 53.56 262.07
  A 0.42 0.42 0.0 0 1 53.14 262.50
  L 40.90 262.50
  A 0.42 0.42 0.0 0 0 40.48 262.92
  L 40.50 272.59
  A 0.42 0.42 0.0 0 0 40.92 273.01
  L 56.60 273.00
  A 0.42 0.42 0.0 0 1 57.02 273.42
  L 57.02 278.18
  A 0.42 0.42 0.0 0 1 56.60 278.60
  L 33.81 278.61
  A 0.42 0.42 0.0 0 1 33.39 278.19
  L 33.39 241.58
  A 0.42 0.42 0.0 0 1 33.81 241.16
  L 56.61 241.18
  A 0.42 0.42 0.0 0 1 57.03 241.60
  L 57.02 246.32
  A 0.42 0.42 0.0 0 1 56.60 246.74
  L 40.92 246.73
  A 0.42 0.42 0.0 0 0 40.50 247.15
  Z"
/>
<path fill="#0a0a0a" d="
  M 97.21 272.74
  L 111.27 272.73
  A 0.48 0.48 0.0 0 1 111.75 273.21
  L 111.75 278.13
  A 0.48 0.48 0.0 0 1 111.27 278.61
  L 90.08 278.61
  A 0.48 0.48 0.0 0 1 89.60 278.13
  L 89.60 241.63
  A 0.48 0.48 0.0 0 1 90.08 241.15
  L 96.27 241.13
  A 0.48 0.48 0.0 0 1 96.75 241.61
  L 96.73 272.26
  A 0.48 0.48 0.0 0 0 97.21 272.74
  Z"
/>
<path fill="#0a0a0a" d="
  M 123.18 269.96
  L 120.61 277.10
  Q 120.07 278.62 118.45 278.62
  L 114.02 278.61
  Q 112.75 278.61 113.21 277.42
  L 127.19 241.80
  A 1.07 1.07 0.0 0 1 128.18 241.13
  L 134.12 241.14
  A 0.88 0.86 79.1 0 1 134.93 241.70
  L 149.12 277.77
  Q 149.47 278.65 148.52 278.64
  L 143.29 278.59
  A 1.64 1.64 0.0 0 1 141.76 277.51
  L 138.95 269.93
  Q 138.75 269.39 138.17 269.39
  L 123.98 269.40
  Q 123.38 269.40 123.18 269.96
  Z
  M 130.60 249.04
  C 129.33 253.98 127.27 259.18 125.29 263.92
  A 0.35 0.35 0.0 0 0 125.61 264.40
  L 136.47 264.41
  A 0.33 0.33 0.0 0 0 136.78 263.96
  L 131.38 249.01
  Q 130.93 247.76 130.60 249.04
  Z"
/>
<path fill="#0a0a0a" d="
  M 197.68 269.96
  L 194.84 277.55
  A 1.66 1.65 -79.3 0 1 193.28 278.62
  L 187.98 278.61
  Q 187.18 278.61 187.47 277.86
  L 201.68 241.73
  Q 201.90 241.17 202.50 241.17
  L 208.62 241.15
  Q 209.17 241.15 209.38 241.66
  L 223.42 277.40
  Q 223.90 278.60 222.61 278.61
  L 218.07 278.62
  A 2.11 2.10 79.7 0 1 216.08 277.24
  L 213.42 269.92
  A 0.80 0.80 0.0 0 0 212.67 269.39
  L 198.50 269.40
  Q 197.90 269.40 197.68 269.96
  Z
  M 199.89 263.82
  Q 199.67 264.41 200.29 264.41
  L 210.74 264.41
  Q 211.41 264.41 211.18 263.79
  L 205.81 249.04
  Q 205.55 248.33 205.29 249.04
  L 199.89 263.82
  Z"
/>
<path fill="#0a0a0a" d="
  M 246.10 263.10
  Q 246.42 263.49 246.92 263.71
  A 0.95 0.87 -2.4 0 1 247.30 264.03
  L 256.56 277.62
  Q 257.24 278.62 256.03 278.62
  L 250.38 278.61
  Q 249.14 278.61 248.44 277.59
  Q 244.32 271.54 240.48 265.48
  Q 238.85 262.92 235.13 264.32
  Q 234.79 264.45 234.79 264.81
  L 234.87 278.10
  A 0.48 0.47 89.4 0 1 234.40 278.59
  L 228.31 278.62
  A 0.57 0.56 0.0 0 1 227.74 278.06
  L 227.74 241.74
  A 0.56 0.55 -90.0 0 1 228.29 241.18
  C 236.59 241.08 255.34 238.70 253.65 253.18
  Q 252.89 259.73 246.28 262.39
  Q 245.70 262.62 246.10 263.10
  Z
  M 234.81 246.92
  L 234.81 258.44
  A 0.33 0.33 0.0 0 0 235.14 258.77
  L 240.46 258.77
  A 6.31 5.62 0.0 0 0 246.77 253.15
  L 246.77 252.21
  A 6.31 5.62 0.0 0 0 240.46 246.59
  L 235.14 246.59
  A 0.33 0.33 0.0 0 0 234.81 246.92
  Z"
/>
<path fill="#0a0a0a" d="
  M 269.19 247.00
  L 258.69 247.02
  A 0.43 0.43 0.0 0 1 258.26 246.59
  L 258.23 241.60
  A 0.43 0.43 0.0 0 1 258.66 241.17
  L 287.46 241.17
  A 0.43 0.43 0.0 0 1 287.89 241.60
  L 287.85 246.58
  A 0.43 0.43 0.0 0 1 287.42 247.01
  L 277.02 247.01
  A 0.43 0.43 0.0 0 0 276.59 247.44
  L 276.62 278.17
  A 0.43 0.43 0.0 0 1 276.19 278.60
  L 270.01 278.62
  A 0.43 0.43 0.0 0 1 269.58 278.19
  L 269.62 247.43
  A 0.43 0.43 0.0 0 0 269.19 247.00
  Z"
/>
<path fill="#0a0a0a" d="
  M 299.39 247.20
  L 299.37 256.54
  A 0.47 0.47 0.0 0 0 299.84 257.01
  L 311.93 256.99
  A 0.47 0.47 0.0 0 1 312.40 257.45
  L 312.45 262.02
  A 0.47 0.47 0.0 0 1 311.98 262.50
  L 299.83 262.50
  A 0.47 0.47 0.0 0 0 299.36 262.97
  L 299.39 272.54
  A 0.47 0.47 0.0 0 0 299.86 273.01
  L 315.37 272.99
  A 0.47 0.47 0.0 0 1 315.84 273.45
  L 315.92 278.12
  A 0.47 0.47 0.0 0 1 315.45 278.60
  L 292.72 278.60
  A 0.47 0.47 0.0 0 1 292.25 278.13
  L 292.26 241.63
  A 0.47 0.47 0.0 0 1 292.73 241.16
  L 315.40 241.17
  A 0.47 0.47 0.0 0 1 315.87 241.64
  L 315.90 246.27
  A 0.47 0.47 0.0 0 1 315.43 246.74
  L 299.86 246.73
  A 0.47 0.47 0.0 0 0 299.39 247.20
  Z"
/>
<path fill="#0a0a0a" d="
  M 70.43 272.74
  L 84.59 272.74
  A 0.43 0.43 0.0 0 1 85.02 273.17
  L 85.02 278.17
  A 0.43 0.43 0.0 0 1 84.59 278.60
  L 63.25 278.61
  A 0.43 0.43 0.0 0 1 62.82 278.18
  L 62.81 241.59
  A 0.43 0.43 0.0 0 1 63.24 241.16
  L 69.58 241.16
  A 0.43 0.43 0.0 0 1 70.01 241.59
  L 70.00 272.31
  A 0.43 0.43 0.0 0 0 70.43 272.74
  Z"
/>
<path fill="#0a0a0a" d="
  M 126.81 295.37
  Q 123.40 297.48 125.59 293.87
  Q 126.47 292.41 129.50 292.55
  Q 131.23 292.64 129.76 293.55
  L 126.81 295.37
  Z"
/>
<path fill="#0a0a0a" d="
  M 33.13 311.15
  Q 34.50 308.95 32.17 307.80
  C 29.45 306.45 26.01 306.19 25.26 303.14
  C 23.80 297.23 30.52 295.14 34.76 297.99
  A 1.21 1.21 0.0 0 1 35.12 299.63
  L 34.93 299.93
  A 0.83 0.83 0.0 0 1 33.68 300.12
  Q 30.68 297.50 27.75 300.19
  A 1.90 1.90 0.0 0 0 28.17 303.28
  C 30.17 304.30 33.76 305.06 35.04 306.77
  C 36.80 309.15 35.62 313.00 33.26 314.30
  Q 28.94 316.67 24.55 313.15
  A 0.81 0.80 40.5 0 1 24.45 311.98
  L 24.83 311.56
  A 1.03 1.03 0.0 0 1 26.28 311.47
  Q 27.94 312.93 30.20 312.96
  Q 31.99 312.99 32.93 311.47
  L 33.13 311.15
  Z"
/>
<path fill="#0a0a0a" d="
  M 95.98 308.99
  C 97.53 313.25 102.48 313.94 105.74 311.43
  A 1.19 1.19 0.0 0 1 107.31 311.53
  L 107.52 311.74
  Q 108.07 312.30 107.47 312.82
  C 98.63 320.41 87.87 308.40 94.73 299.98
  C 97.93 296.05 103.33 295.72 107.45 298.64
  Q 108.05 299.06 107.55 299.59
  L 106.96 300.21
  A 0.92 0.91 39.5 0 1 105.75 300.32
  C 99.45 295.73 93.64 302.53 95.98 308.99
  Z"
/>
<path fill="#0a0a0a" d="
  M 126.3970 315.1695
  A 9.26 8.97 89.4 0 1 117.3305 306.0039
  A 9.26 8.97 89.4 0 1 126.2030 296.6505
  A 9.26 8.97 89.4 0 1 135.2695 305.8161
  A 9.26 8.97 89.4 0 1 126.3970 315.1695
  Z
  M 126.3245 312.9500
  A 7.03 6.36 89.8 0 0 132.6600 305.8978
  A 7.03 6.36 89.8 0 0 126.2755 298.8900
  A 7.03 6.36 89.8 0 0 119.9400 305.9422
  A 7.03 6.36 89.8 0 0 126.3245 312.9500
  Z"
/>
<path fill="#0a0a0a" d="
  M 254.48 311.56
  C 259.27 315.89 264.62 308.97 259.50 307.29
  C 257.05 306.48 254.47 306.04 253.33 303.60
  C 250.69 297.96 258.66 294.98 263.07 298.15
  A 0.87 0.87 0.0 0 1 263.35 299.23
  L 263.11 299.76
  Q 262.72 300.61 261.92 300.13
  C 259.64 298.78 256.87 297.91 255.51 300.83
  A 1.98 1.98 0.0 0 0 256.51 303.49
  C 258.43 304.33 261.83 305.14 263.07 306.79
  C 264.80 309.09 263.66 312.96 261.47 314.22
  Q 257.04 316.77 252.61 313.17
  A 0.87 0.87 0.0 0 1 252.55 311.88
  L 252.81 311.61
  A 1.21 1.21 0.0 0 1 254.48 311.56
  Z"
/>
<path fill="#0a0a0a" d="
  M 0.00 296.97
  L 1.78 297.00
  Q 2.26 297.01 2.26 297.50
  L 2.27 314.02
  Q 2.27 314.53 1.82 314.78
  Q 0.92 315.28 0.00 314.68
  L 0.00 296.97
  Z"
/>
<path fill="#0a0a0a" d="
  M 9.09 302.46
  L 9.23 314.21
  A 0.71 0.71 0.0 0 1 8.53 314.92
  L 7.51 314.94
  A 0.69 0.69 0.0 0 1 6.81 314.25
  L 6.82 299.25
  Q 6.82 294.43 9.75 298.26
  L 18.67 309.89
  Q 19.21 310.59 19.20 309.71
  L 19.11 297.60
  A 0.62 0.61 -89.5 0 1 19.73 296.98
  L 20.95 296.98
  Q 21.41 296.99 21.41 297.45
  L 21.40 312.73
  Q 21.39 317.30 18.62 313.67
  L 9.86 302.19
  Q 9.08 301.16 9.09 302.46
  Z"
/>
<path fill="#0a0a0a" d="
  M 45.25 299.60
  L 45.27 314.48
  A 0.46 0.46 0.0 0 1 44.81 314.95
  L 43.20 314.96
  A 0.46 0.46 0.0 0 1 42.73 314.50
  L 42.75 299.59
  A 0.46 0.46 0.0 0 0 42.28 299.13
  L 37.47 299.21
  A 0.46 0.46 0.0 0 1 37.01 298.77
  L 36.96 297.45
  A 0.46 0.46 0.0 0 1 37.42 296.98
  L 50.58 296.97
  A 0.46 0.46 0.0 0 1 51.04 297.43
  L 51.02 298.75
  A 0.46 0.46 0.0 0 1 50.56 299.20
  L 45.72 299.14
  A 0.46 0.46 0.0 0 0 45.25 299.60
  Z"
/>
<rect fill="#0a0a0a" x="-1.29" y="-8.97" transform="translate(55.11,305.95) rotate(-0.1)" width="2.58" height="17.94" rx="0.51"/>
<path fill="#0a0a0a" d="
  M 67.57 299.60
  L 67.63 314.56
  A 0.46 0.46 0.0 0 1 67.14 315.02
  L 65.41 314.91
  A 0.46 0.46 0.0 0 1 64.98 314.45
  L 65.01 299.62
  A 0.46 0.46 0.0 0 0 64.55 299.16
  L 59.68 299.20
  A 0.46 0.46 0.0 0 1 59.21 298.72
  L 59.25 297.43
  A 0.46 0.46 0.0 0 1 59.71 296.98
  L 72.98 296.97
  A 0.46 0.46 0.0 0 1 73.44 297.43
  L 73.45 298.75
  A 0.46 0.46 0.0 0 1 72.98 299.21
  L 68.04 299.14
  A 0.46 0.46 0.0 0 0 67.57 299.60
  Z"
/>
<path fill="#0a0a0a" d="
  M 82.84 312.82
  L 83.99 312.71
  A 3.74 3.74 0.0 0 0 87.36 309.01
  L 87.40 297.42
  Q 87.40 296.98 87.83 296.98
  L 89.29 296.99
  A 0.55 0.55 0.0 0 1 89.84 297.54
  C 89.87 301.56 90.67 309.28 88.46 312.46
  C 85.73 316.39 78.53 315.83 76.40 311.60
  C 74.78 308.37 75.51 301.51 75.49 297.47
  A 0.48 0.47 -90.0 0 1 75.96 296.99
  L 77.71 296.99
  A 0.48 0.47 -0.0 0 1 78.19 297.46
  L 78.17 308.58
  A 4.25 4.25 0.0 0 0 82.84 312.82
  Z"
/>
<rect fill="#0a0a0a" x="111.26" y="296.99" width="2.58" height="17.94" rx="0.55"/>
<path fill="#0a0a0a" d="
  M 140.44 301.90
  L 140.53 314.14
  A 0.88 0.87 -88.8 0 1 139.61 315.03
  L 139.10 315.00
  Q 138.25 314.95 138.25 314.10
  L 138.27 299.25
  Q 138.27 294.39 141.22 298.26
  L 149.78 309.52
  Q 150.67 310.70 150.66 309.23
  L 150.57 297.58
  A 0.60 0.59 0.0 0 1 151.17 296.99
  L 152.42 296.99
  Q 152.86 296.99 152.86 297.42
  L 152.84 314.29
  A 0.71 0.70 -87.8 0 1 152.08 315.00
  Q 151.28 314.93 150.75 314.28
  Q 145.69 308.11 140.98 301.72
  A 0.30 0.30 0.0 0 0 140.44 301.90
  Z"
/>
<path fill="#0a0a0a" d="
  M 168.78 312.83
  A 4.38 4.38 0.0 0 0 173.50 308.46
  L 173.50 297.25
  Q 173.50 296.99 173.75 296.99
  L 175.70 297.01
  Q 176.01 297.01 176.01 297.32
  C 176.03 301.83 176.89 309.02 174.51 312.55
  Q 171.93 316.37 166.48 314.81
  C 159.87 312.91 161.57 302.69 161.61 297.38
  Q 161.61 296.99 161.99 296.99
  L 164.00 296.99
  Q 164.26 296.99 164.26 297.25
  L 164.26 308.99
  A 3.77 3.77 0.0 0 0 167.74 312.75
  L 168.78 312.83
  Z"
/>
<path fill="#0a0a0a" d="
  M 192.31 309.55
  L 192.23 297.49
  Q 192.23 296.97 192.76 296.97
  L 194.00 296.99
  Q 194.50 296.99 194.50 297.50
  L 194.50 312.78
  Q 194.50 317.30 191.76 313.71
  L 183.14 302.40
  Q 182.19 301.15 182.20 302.72
  L 182.29 314.24
  Q 182.30 315.04 181.51 314.97
  L 180.59 314.89
  Q 179.97 314.84 179.97 314.22
  L 179.99 299.28
  Q 179.99 294.47 182.91 298.29
  L 191.68 309.77
  Q 192.32 310.61 192.31 309.55
  Z"
/>
<rect fill="#0a0a0a" x="199.26" y="296.98" width="2.48" height="17.96" rx="0.59"/>
<path fill="#0a0a0a" d="
  M 212.96 310.94
  L 218.10 297.79
  Q 218.38 297.07 219.15 297.02
  L 220.53 296.93
  Q 221.21 296.89 220.95 297.52
  L 214.72 312.75
  Q 212.72 317.65 210.71 312.75
  L 204.55 297.69
  Q 204.24 296.94 205.06 296.97
  L 206.13 297.00
  Q 207.00 297.03 207.31 297.83
  L 212.53 310.94
  Q 212.75 311.48 212.96 310.94
  Z"
/>
<path fill="#0a0a0a" d="
  M 225.73 299.47
  L 225.73 304.40
  A 0.43 0.43 0.0 0 0 226.16 304.83
  L 232.41 304.79
  A 0.43 0.43 0.0 0 1 232.84 305.25
  L 232.77 306.54
  A 0.43 0.43 0.0 0 1 232.34 306.94
  L 226.17 306.87
  A 0.43 0.43 0.0 0 0 225.74 307.29
  L 225.73 312.31
  A 0.43 0.43 0.0 0 0 226.16 312.74
  L 234.06 312.73
  A 0.43 0.43 0.0 0 1 234.49 313.17
  L 234.46 314.47
  A 0.43 0.43 0.0 0 1 234.03 314.89
  L 223.68 314.86
  A 0.43 0.43 0.0 0 1 223.25 314.43
  L 223.26 297.42
  A 0.43 0.43 0.0 0 1 223.69 296.99
  L 234.01 296.96
  A 0.43 0.43 0.0 0 1 234.45 297.40
  L 234.43 298.60
  A 0.43 0.43 0.0 0 1 234.00 299.03
  L 226.16 299.04
  A 0.43 0.43 0.0 0 0 225.73 299.47
  Z"
/>
<path fill="#0a0a0a" d="
  M 240.47 308.20
  L 240.53 314.27
  A 0.74 0.73 2.5 0 1 239.73 315.00
  L 238.63 314.91
  Q 237.81 314.83 237.81 314.01
  L 237.82 297.53
  Q 237.82 297.10 238.24 297.07
  C 241.83 296.79 248.39 296.07 249.44 300.57
  Q 250.48 305.02 245.98 306.83
  Q 245.47 307.03 245.80 307.47
  L 250.88 314.23
  Q 251.51 315.07 250.47 315.01
  L 249.57 314.97
  A 2.43 2.41 73.0 0 1 247.76 314.00
  Q 245.79 311.35 243.70 308.51
  Q 242.71 307.15 240.98 307.56
  Q 240.47 307.68 240.47 308.20
  Z
  M 240.54 299.56
  L 240.39 304.88
  A 0.67 0.67 0.0 0 0 241.04 305.56
  L 242.97 305.62
  A 4.12 3.22 1.6 0 0 247.18 302.51
  L 247.18 302.29
  A 4.12 3.22 1.6 0 0 243.15 298.96
  L 241.22 298.91
  A 0.67 0.67 0.0 0 0 240.54 299.56
  Z"
/>
<rect fill="#0a0a0a" x="267.26" y="296.99" width="2.58" height="17.94" rx="0.56"/>
<path fill="#0a0a0a" d="
  M 272.55 298.74
  L 272.60 297.42
  A 0.46 0.46 0.0 0 1 273.06 296.98
  L 286.30 296.97
  A 0.46 0.46 0.0 0 1 286.76 297.43
  L 286.78 298.73
  A 0.46 0.46 0.0 0 1 286.32 299.19
  L 281.45 299.18
  A 0.46 0.46 0.0 0 0 280.99 299.64
  L 281.02 314.47
  A 0.46 0.46 0.0 0 1 280.57 314.93
  L 278.84 314.99
  A 0.46 0.46 0.0 0 1 278.36 314.52
  L 278.43 299.59
  A 0.46 0.46 0.0 0 0 277.96 299.13
  L 273.02 299.22
  A 0.46 0.46 0.0 0 1 272.55 298.74
  Z"
/>
<path fill="#0a0a0a" d="
  M 297.26 310.03
  L 290.44 310.03
  Q 289.89 310.03 289.70 310.54
  L 288.44 313.83
  Q 288.04 314.88 286.92 314.98
  L 286.49 315.02
  Q 285.27 315.12 285.73 313.99
  L 292.22 297.74
  Q 292.44 297.20 293.01 297.07
  Q 293.80 296.88 294.61 296.99
  Q 295.17 297.07 295.38 297.59
  L 302.07 314.24
  Q 302.40 315.08 301.50 314.98
  L 300.57 314.88
  Q 299.59 314.77 299.23 313.84
  L 297.97 310.51
  Q 297.78 310.03 297.26 310.03
  Z
  M 290.82 307.66
  A 0.31 0.31 0.0 0 0 291.11 308.08
  L 296.57 308.08
  A 0.31 0.31 0.0 0 0 296.86 307.66
  L 294.13 300.45
  A 0.31 0.31 0.0 0 0 293.55 300.45
  L 290.82 307.66
  Z"
/>
<path fill="#0a0a0a" d="
  M 312.49 307.48
  L 317.54 314.19
  A 0.55 0.55 0.0 0 1 317.02 315.07
  L 316.05 314.94
  Q 314.91 314.78 314.25 313.84
  Q 312.48 311.34 310.49 308.60
  C 309.65 307.45 308.86 307.22 307.54 307.58
  Q 307.07 307.70 307.09 308.18
  L 307.23 313.98
  Q 307.26 314.96 306.27 314.96
  L 305.27 314.96
  A 0.69 0.68 90.0 0 1 304.59 314.27
  L 304.61 297.51
  Q 304.61 297.06 305.06 297.04
  C 309.07 296.87 316.03 296.09 316.25 301.57
  Q 316.40 305.32 312.68 306.81
  Q 312.15 307.02 312.49 307.48
  Z
  M 307.13 299.45
  L 307.09 305.05
  A 0.49 0.49 0.0 0 0 307.57 305.55
  L 309.99 305.57
  A 3.77 3.15 0.5 0 0 313.79 302.45
  L 313.79 302.17
  A 3.77 3.15 0.5 0 0 310.05 298.99
  L 307.63 298.97
  A 0.49 0.49 0.0 0 0 307.13 299.45
  Z"
/>
<rect fill="#0a0a0a" x="320.74" y="296.98" width="2.66" height="17.94" rx="0.47"/>
<path fill="#0a0a0a" d="
  M 337.90 310.02
  L 330.74 310.04
  A 0.55 0.55 0.0 0 0 330.23 310.40
  L 328.66 314.60
  A 0.55 0.55 0.0 0 1 328.16 314.96
  L 326.64 315.01
  A 0.55 0.55 0.0 0 1 326.11 314.25
  L 332.92 297.29
  A 0.55 0.55 0.0 0 1 333.45 296.95
  L 335.31 297.02
  A 0.55 0.55 0.0 0 1 335.79 297.37
  L 342.59 314.30
  A 0.55 0.55 0.0 0 1 342.02 315.06
  L 340.48 314.89
  A 0.55 0.55 0.0 0 1 340.02 314.55
  L 338.42 310.37
  A 0.55 0.55 0.0 0 0 337.90 310.02
  Z
  M 331.31 307.67
  A 0.31 0.31 0.0 0 0 331.61 308.09
  L 337.10 308.07
  A 0.31 0.31 0.0 0 0 337.39 307.64
  L 334.60 300.52
  A 0.31 0.31 0.0 0 0 334.03 300.52
  L 331.31 307.67
  Z"
/>
<path fill="#0a0a0a" d="
  M 132.25 333.25
  L 138.55 333.25
  A 0.43 0.43 0.0 0 1 138.98 333.67
  L 139.01 334.83
  A 0.43 0.43 0.0 0 1 138.58 335.27
  L 132.24 335.26
  A 0.43 0.43 0.0 0 0 131.81 335.69
  L 131.81 340.82
  A 0.43 0.43 0.0 0 0 132.24 341.25
  L 140.21 341.25
  A 0.43 0.43 0.0 0 1 140.64 341.70
  L 140.59 343.23
  A 0.43 0.43 0.0 0 1 140.16 343.64
  L 129.81 343.63
  A 0.43 0.43 0.0 0 1 129.38 343.20
  L 129.38 325.83
  A 0.43 0.43 0.0 0 1 129.81 325.40
  L 140.25 325.39
  A 0.43 0.43 0.0 0 1 140.68 325.82
  L 140.69 327.07
  A 0.43 0.43 0.0 0 1 140.26 327.50
  L 132.23 327.51
  A 0.43 0.43 0.0 0 0 131.80 327.94
  L 131.82 332.82
  A 0.43 0.43 0.0 0 0 132.25 333.25
  Z"
/>
<path fill="#0a0a0a" d="
  M 146.79 341.26
  L 153.62 341.25
  A 0.42 0.42 0.0 0 1 154.04 341.68
  L 154.02 343.22
  A 0.42 0.42 0.0 0 1 153.60 343.63
  L 144.23 343.63
  A 0.42 0.42 0.0 0 1 143.81 343.21
  L 143.81 325.78
  A 0.42 0.42 0.0 0 1 144.23 325.36
  L 146.01 325.37
  A 0.42 0.42 0.0 0 1 146.43 325.79
  L 146.37 340.84
  A 0.42 0.42 0.0 0 0 146.79 341.26
  Z"
/>
<path fill="#0a0a0a" d="
  M 168.03 339.22
  L 173.00 326.48
  Q 173.39 325.48 174.47 325.37
  L 175.23 325.30
  Q 176.28 325.20 175.88 326.18
  L 169.40 341.98
  Q 167.71 346.11 166.02 341.98
  L 159.59 326.29
  Q 159.24 325.43 160.17 325.38
  L 160.85 325.34
  A 1.46 1.46 0.0 0 1 162.29 326.26
  L 167.45 339.22
  Q 167.75 339.96 168.03 339.22
  Z"
/>
<path fill="#0a0a0a" d="
  M 178.82 338.98
  L 177.30 342.80
  Q 176.94 343.71 175.96 343.72
  L 175.26 343.73
  Q 174.31 343.74 174.66 342.87
  L 181.41 326.04
  Q 181.64 325.46 182.26 325.36
  Q 182.98 325.25 183.70 325.38
  Q 184.23 325.47 184.43 325.97
  L 191.18 342.78
  Q 191.60 343.81 190.49 343.73
  L 189.91 343.69
  Q 188.89 343.62 188.51 342.67
  L 187.05 339.02
  Q 186.84 338.51 186.28 338.51
  L 179.52 338.51
  A 0.76 0.75 10.9 0 0 178.82 338.98
  Z
  M 179.85 336.19
  A 0.31 0.31 0.0 0 0 180.14 336.61
  L 185.71 336.62
  A 0.31 0.31 0.0 0 0 186.00 336.20
  L 183.23 328.93
  A 0.31 0.31 0.0 0 0 182.65 328.93
  L 179.85 336.19
  Z"
/>
<path fill="#0a0a0a" d="
  M 196.53 341.26
  L 203.21 341.25
  A 0.54 0.54 0.0 0 1 203.75 341.79
  L 203.75 343.10
  A 0.54 0.54 0.0 0 1 203.21 343.64
  L 194.04 343.64
  A 0.54 0.54 0.0 0 1 193.50 343.10
  L 193.49 325.91
  A 0.54 0.54 0.0 0 1 194.04 325.37
  L 195.49 325.38
  A 0.54 0.54 0.0 0 1 196.02 325.92
  L 195.99 340.72
  A 0.54 0.54 0.0 0 0 196.53 341.26
  Z"
/>
<path fill="#0a0a0a" d="
  M 221.94 333.26
  L 228.15 333.23
  A 0.43 0.43 0.0 0 1 228.58 333.67
  L 228.57 334.85
  A 0.43 0.43 0.0 0 1 228.13 335.28
  L 221.91 335.24
  A 0.43 0.43 0.0 0 0 221.48 335.67
  L 221.50 340.84
  A 0.43 0.43 0.0 0 0 221.93 341.27
  L 229.78 341.24
  A 0.43 0.43 0.0 0 1 230.21 341.67
  L 230.22 343.21
  A 0.43 0.43 0.0 0 1 229.79 343.64
  L 219.42 343.62
  A 0.43 0.43 0.0 0 1 218.99 343.19
  L 218.99 325.84
  A 0.43 0.43 0.0 0 1 219.42 325.41
  L 229.80 325.39
  A 0.43 0.43 0.0 0 1 230.23 325.82
  L 230.23 327.07
  A 0.43 0.43 0.0 0 1 229.80 327.50
  L 221.90 327.51
  A 0.43 0.43 0.0 0 0 221.47 327.94
  L 221.51 332.83
  A 0.43 0.43 0.0 0 0 221.94 333.26
  Z"
/>
<path fill="#0a0a0a" d="
  M 120.00 343.18
  Q 118.76 343.63 117.44 343.63
  L 111.31 343.63
  Q 110.74 343.63 110.74 343.06
  L 110.73 325.74
  A 0.34 0.34 0.0 0 1 111.06 325.40
  C 114.50 325.36 118.95 324.93 121.81 326.44
  C 128.74 330.08 127.48 340.48 120.00 343.18
  Z
  M 113.17 328.12
  L 113.23 340.64
  A 0.65 0.65 0.0 0 0 113.89 341.28
  L 117.47 341.27
  A 6.31 6.23 89.7 0 0 123.66 334.92
  L 123.66 333.72
  A 6.31 6.23 89.7 0 0 117.39 327.45
  L 113.81 327.46
  A 0.65 0.65 0.0 0 0 113.17 328.12
  Z"
/>
<path fill="#0a0a0a" d="
  M 209.21 341.27
  L 216.08 341.24
  A 0.49 0.49 0.0 0 1 216.58 341.72
  L 216.62 343.14
  A 0.49 0.49 0.0 0 1 216.13 343.65
  L 206.75 343.63
  A 0.49 0.49 0.0 0 1 206.26 343.14
  L 206.25 325.90
  A 0.49 0.49 0.0 0 1 206.73 325.41
  L 208.26 325.39
  A 0.49 0.49 0.0 0 1 208.76 325.88
  L 208.72 340.78
  A 0.49 0.49 0.0 0 0 209.21 341.27
  Z"
/>
</svg>
